# xmcd CD database file
#
# Track frame offsets:
#	150
#	12685
#	27770
#	41417
#	55522
#	67822
#	82302
#	96150
#	108990
#	122200
#	133062
#	145800
#	158517
#	172017
#	183102
#	214570
#	242755
#	254460
#	267167
#	279357
#
# Disc length: 4347 seconds
#
# Revision: 10
# Processed by: cddbd v1.5.2PL0 Copyright (c) Steve Scherf et al.
# Submitted via: jetAudio 5
#
DISCID=1410f914
DTITLE=Various Artist - Atlantic Blues- Guitar
DYEAR=1986
DGENRE=
TTITLE0=Blind Willie McTell - Broke Down Engine
TTITLE1=Mississippi Fred McDowell - Shake 'Em On Down
TTITLE2=John Lee Hooker - My Baby Don't Love Me
TTITLE3=Stick McGhee - Tall Pretty Woman
TTITLE4=Texas Johnny Brown - The Blues Rock
TTITLE5=Texas Johnny Brown - There Goes the Blues
TTITLE6=Texas Johnny Brown - Bongo Boogie
TTITLE7=T-Bone Walker - Two Bones and a Pick
TTITLE8=Chuck Brown - Let Me Know
TTITLE9=Guitar Slim - Down Through the Years
TTITLE10=Cornell Dupree - Okie Dokie Stomp
TTITLE11=Big Joe Turner - TV Mama
TTITLE12=Al King - Reconsider Baby
TTITLE13=Mickey Baker - Midnight Midnight
TTITLE14=Ike and Tina Turner - I Smell Trouble
TTITLE15=B. B. King - Why I Sing the Blues
TTITLE16=Albert King - Crosscut Saw
TTITLE17=Albert King - Born Under a Bad Sign
TTITLE18=John Hammond, Jr. - Shake for Me
TTITLE19=Stevie Ray Vaughn - Flood Down In Texas
EXTD=LABEL =Atlantic Recording CorporationID =781695-2UPC =07567-8
EXTD=1695-26COPYRIGHT =1986*****YEAR: 1986*****Due to time restri
EXTD=ctions, the following songs from the album package are NOT include
EXTD=d on this cd ...- John Lee Hooker - Guitar Lovin' Man- T-Bone Wa
EXTD=lker - Mean Old World- Guitar Slim - It Hurts To Love Someone- C
EXTD=ornell Dupree - Blues Nocturne*****
EXTT0=
EXTT1=
EXTT2=
EXTT3=
EXTT4=
EXTT5=
EXTT6=
EXTT7=
EXTT8=
EXTT9=
EXTT10=
EXTT11=
EXTT12=
EXTT13=
EXTT14=
EXTT15=
EXTT16=
EXTT17=
EXTT18=
EXTT19=
PLAYORDER=
